<svg xmlns="http://www.w3.org/2000/svg" viewBox="0 0 73 12" width="84" height="19">
  <path
    d="M11.9 4.48479C11.8 4.28319 11.6 4.18239 11.4 4.18239H7.6L6.4 0.55359C6.3 0.15039 5.6 0.15039 5.4 0.55359L4.2 4.18239H0.400002C0.200002 4.18239 1.53109e-06 4.28319 -0.0999985 4.48479C-0.199998 4.68639 -0.0999977 4.88799 0.100002 5.08959L3.2 7.30719L2 10.936C1.9 11.1376 2 11.3392 2.2 11.5408C2.4 11.6416 2.6 11.6416 2.8 11.5408L5.9 9.32319L9 11.5408C9.1 11.6416 9.2 11.6416 9.3 11.6416C9.4 11.6416 9.5 11.6416 9.6 11.5408C9.8 11.44 9.9 11.2384 9.8 10.936L8.6 7.30719L11.7 5.08959C11.9 4.88799 12 4.68639 11.9 4.48479Z"
    fill="#ff6e61"
  />
  <path
    d="M26.9 4.48479C26.8 4.28319 26.6 4.18239 26.4 4.18239H22.6L21.4 0.55359C21.3 0.15039 20.6 0.15039 20.4 0.55359L19.2 4.18239H15.4C15.2 4.18239 15 4.28319 14.9 4.48479C14.8 4.68639 14.9 4.88799 15.1 5.08959L18.2 7.30719L17 10.936C16.9 11.1376 17 11.3392 17.2 11.5408C17.4 11.6416 17.6 11.6416 17.8 11.5408L20.9 9.32319L24 11.5408C24.1 11.6416 24.2 11.6416 24.3 11.6416C24.4 11.6416 24.5 11.6416 24.6 11.5408C24.8 11.44 24.9 11.2384 24.8 10.936L23.6 7.30719L26.7 5.08959C26.9 4.88799 27 4.68639 26.9 4.48479Z"
    fill="#ff6e61"
  />
  <path
    d="M41.9 4.48479C41.8 4.28319 41.6 4.18239 41.4 4.18239H37.6L36.4 0.55359C36.3 0.15039 35.6 0.15039 35.4 0.55359L34.2 4.18239H30.4C30.2 4.18239 30 4.28319 29.9 4.48479C29.8 4.68639 29.9 4.88799 30.1 5.08959L33.2 7.30719L32 10.936C31.9 11.1376 32 11.3392 32.2 11.5408C32.4 11.6416 32.6 11.6416 32.8 11.5408L35.9 9.32319L39 11.5408C39.1 11.6416 39.2 11.6416 39.3 11.6416C39.4 11.6416 39.5 11.6416 39.6 11.5408C39.8 11.44 39.9 11.2384 39.8 10.936L38.6 7.30719L41.7 5.08959C41.9 4.88799 42 4.68639 41.9 4.48479Z"
    fill="#ff6e61"
  />
  <path
    d="M56.9 4.48479C56.8 4.28319 56.6 4.18239 56.4 4.18239H52.6L51.4 0.55359C51.3 0.15039 50.6 0.15039 50.4 0.55359L49.2 4.18239H45.4C45.2 4.18239 45 4.28319 44.9 4.48479C44.8 4.68639 44.9 4.88799 45.1 5.08959L48.2 7.30719L47 10.936C46.9 11.1376 47 11.3392 47.2 11.5408C47.4 11.6416 47.6 11.6416 47.8 11.5408L50.9 9.32319L54 11.5408C54.1 11.6416 54.2 11.6416 54.3 11.6416C54.4 11.6416 54.5 11.6416 54.6 11.5408C54.8 11.44 54.9 11.2384 54.8 10.936L53.6 7.30719L56.7 5.08959C56.9 4.88799 57 4.68639 56.9 4.48479Z"
    fill="#ff6e61"
  />
  <path
    d="M71.9 4.48479C71.8 4.28319 71.6 4.18239 71.4 4.18239H67.6L66.4 0.55359C66.3 0.15039 65.6 0.15039 65.4 0.55359L64.2 4.18239H60.4C60.2 4.18239 60 4.28319 59.9 4.48479C59.8 4.68639 59.9 4.88799 60.1 5.08959L63.2 7.30719L62 10.936C61.9 11.1376 62 11.3392 62.2 11.5408C62.4 11.6416 62.6 11.6416 62.8 11.5408L65.9 9.32319L69 11.5408C69.1 11.6416 69.2 11.6416 69.3 11.6416C69.4 11.6416 69.5 11.6416 69.6 11.5408C69.8 11.44 69.9 11.2384 69.8 10.936L68.6 7.30719L71.7 5.08959C71.9 4.88799 72 4.68639 71.9 4.48479ZM67.8 6.70239C67.6 6.80319 67.5 7.10559 67.6 7.30719L68.4 9.82719L66.3 8.31519C66.2 8.21439 66.1 8.21439 66 8.21439V2.36799L66.8 4.88799C66.9 5.08959 67.1 5.19039 67.3 5.19039H69.9L67.8 6.70239Z"
    fill="#ff6e61"
  />
</svg>